<?xml version="1.0" standalone="no"?><!DOCTYPE svg PUBLIC "-//W3C//DTD SVG 1.1//EN" "http://www.w3.org/Graphics/SVG/1.1/DTD/svg11.dtd"><svg t="1565508353836" class="icon" viewBox="0 0 1024 1024" version="1.1" xmlns="http://www.w3.org/2000/svg" p-id="3191" xmlns:xlink="http://www.w3.org/1999/xlink" width="128" height="128"><defs><style type="text/css"></style></defs><path d="M512 1010.58333334C233.6345 1010.58333334 8 784.94883334 8 506.58333334S233.6345 2.58333334 512 2.58333334s504 225.6345 504 504-225.6345 504-504 504z m115.416-508.347l-231.21 221.9175a32.508 32.508 0 0 0 0 47.376c6.804 6.552 15.75 9.828 24.696 9.828 8.9145 0 17.829-3.276 24.6645-9.828l255.8745-245.637a32.5395 32.5395 0 0 0 0-47.3445l-255.8745-245.637a35.91 35.91 0 0 0-49.329 0 32.5395 32.5395 0 0 0 0 47.3445l231.21 221.9805z" p-id="3192" fill="#bfbfbf"></path></svg>