<?xml version="1.0" standalone="no"?><!DOCTYPE svg PUBLIC "-//W3C//DTD SVG 1.1//EN" "http://www.w3.org/Graphics/SVG/1.1/DTD/svg11.dtd"><svg t="1566620494927" class="icon" viewBox="0 0 1024 1024" version="1.1" xmlns="http://www.w3.org/2000/svg" p-id="5838" xmlns:xlink="http://www.w3.org/1999/xlink" width="128" height="128"><defs><style type="text/css"></style></defs><path d="M512 512m-512 0a512 512 0 1 0 1024 0 512 512 0 1 0-1024 0Z" fill="#FF903E" p-id="5839"></path><path d="M514.9 796.5c-24.2 0-46-14.6-55.3-36.9-9.3-22.4-4.1-48.1 13-65.2s42.8-22.2 65.2-13c22.4 9.3 36.9 31.1 36.9 55.3-0.1 33-26.8 59.7-59.8 59.7v0.1z m0-179.6c-16.5 0-30-26.7-30-59.8l-29.9-269.7c0-33 26.8-59.8 59.8-59.8s59.8 26.8 59.8 59.8l-30 269.4c0 33.1-13.5 59.8-30 59.8l0.3 0.3z" fill="#FFFFFF" p-id="5840"></path></svg>