<?xml version="1.0" standalone="no"?><!DOCTYPE svg PUBLIC "-//W3C//DTD SVG 1.1//EN"
  "http://www.w3.org/Graphics/SVG/1.1/DTD/svg11.dtd">
<svg t="1589159888098" class="icon" viewBox="0 0 1024 1024" version="1.1" xmlns="http://www.w3.org/2000/svg" p-id="3075"
     xmlns:xlink="http://www.w3.org/1999/xlink" width="64" height="64">
  <defs>
    <style type="text/css"></style>
  </defs>
  <path
    d="M511.889995 128.745223c-201.858404 0-365.490182 163.631778-365.490182 365.490182 0 201.857381 163.631778 365.489158 365.490182 365.489158s365.489158-163.631778 365.489158-365.489158C877.379153 292.377 713.748399 128.745223 511.889995 128.745223zM722.047412 492.700445c0 10.279111-3.230578 19.800975-18.274202 19.800975l-36.549427 0 0 127.921461 0 36.549427c0 14.812357-8.975419 18.273179-18.273179 18.273179l-91.373057 0c0 0 0-114.857934 0-127.911228 0-5.880941-10.494005-18.275225-18.274202-18.275225l-36.549427 0c-7.334036 0-18.274202 11.662621-18.274202 18.275225l0 127.911228c0 0-71.90261 0-91.372034 0-10.413164 0-18.274202-7.78122-18.274202-18.273179L374.833479 512.500397l-36.548404 0c-11.225669 0-18.274202-3.51608-18.274202-20.701484l0-3.631714 189.293227-191.694927c2.213411-2.168386 5.353938-3.26537 9.31618-3.26537 4.470825 0 7.879458 1.115404 10.119475 3.301186 95.218642 93.237521 193.309704 192.515618 193.309704 192.515618L722.049458 492.700445z"
    p-id="3076" fill="#bfbfbf"></path>
</svg>
